<svg xmlns="http://www.w3.org/2000/svg" enable-background="new 0 0 400 400" viewBox="0 0 400 400"><g fill="#010103"><path d="m169.09 25.13c6.04 1.11 9.18 3.68 9.96 9.79.91 7.18 1.15 14.47 1.28 21.72.22 11.97.78 24-.05 35.92-.68 9.74-3.15 19.35-4.96 29-.2 1.08-1.1 2.16-1.94 2.97-7.57 7.27-16.78 11.01-27.1 11.93-13.13 1.17-26.29 2.07-39.44 3.09-1.2.09-2.4.24-3.95.4v4.48c0 39.19.28 78.38-.15 117.57-.16 14.62-1.99 29.23-3.03 43.85-1.3 18.3-2.55 36.6-3.85 54.9-.14 2-.31 4.03-.81 5.96-1.27 4.86-5.17 7.74-10.2 7.48-.96-.05-2.49-.97-2.69-1.76-.74-2.88-1.69-5.94-1.37-8.8 4.36-39.42 6.79-78.92 6.6-118.61-.17-34.25.59-68.51.81-102.77.08-13.09-.33-26.19-.29-39.29.04-13.08 2.4-25.75 6.82-38.11 1.55-4.34 4.38-6.75 8.1-8.74 7.61-4.09 15.93-5.08 24.33-5.5 12.06-.6 24.14-1.06 36.21-1.37 2.76-.07 3.96-.95 3.75-3.67-.16-2.11-.2-4.25-.52-6.34-.77-5.03-.28-9.77 2.49-14.1zm-66.19 100.7c3.69 0 7.03.03 10.38-.01 11.74-.12 23.49-.08 34.95-3.3 9.71-2.73 17.49-7.38 19.22-18.4.02-.11.07-.21.1-.32 2.01-7.64-.75-10.64-8.48-9.4-11.15 1.79-22.32 3.46-33.48 5.19-7.82 1.21-15.64 2.45-23.76 3.73.36 7.56.71 14.88 1.07 22.51zm64.31-47.41c-.6-5.32-1.18-10.44-1.79-15.85-13.01.4-25.61.61-38.2 1.26-7.02.36-13.5 2.86-19.3 6.93-.71.5-1.74 1.11-1.85 1.8-.92 5.56-1.66 11.15-2.5 17.07 21.51-3.78 42.37-7.46 63.64-11.21z"/><path d="m305.19 374.74c-4.32-5.21-6.39-10.95-7.04-17.16-2.19-20.91-4.59-41.8-6.24-62.75-1.2-15.27-1.78-30.62-1.85-45.94-.14-35.48.16-70.96.4-106.44.02-2.49-1-3.04-3.08-3.22-12.47-1.09-24.92-2.5-37.41-3.33-22.01-1.47-35.57-15.13-36.65-37.22-.88-17.98 1.09-35.75 3.69-53.48.63-4.32 1.16-8.65 1.72-12.97.55-4.21 2.39-5.37 6.45-4.02 5.16 1.71 6.89 4.55 6.06 9.95-1.62 10.5-.16 12.57 10.45 12.95 8.7.32 17.42.19 26.12-.07 10.26-.3 19.55 2.17 27.32 9.03 6.04 5.32 7.84 12.86 9.56 20.26 2.65 11.35 1.96 22.9 1.75 34.43-.65 35.25-1.22 70.49-1.73 105.74-.22 15-.67 30.01-.17 44.99.46 13.73 1.98 27.44 3.21 41.14 1.83 20.39 3.75 40.78 5.82 61.14.3 2.94-.62 4.29-3.26 5.04-1.68.49-3.31 1.24-5.12 1.93zm-14.79-273.21c-20.68-2.56-41.19-5.1-61.83-7.65-1.03 7.84.14 14.67 3.82 20.93.87 1.48 2.52 3.1 4.09 3.47 8.56 1.99 17.15 4.27 25.86 5.17s17.57.35 26.37.24c.88-.01 2.52-1.38 2.5-2.1-.1-6.58-.49-13.15-.81-20.06zm-.02-14.71c-1.35-3.9-2.97-7.09-3.51-10.45-1.16-7.12-6.07-9.63-12.16-11.03-1.52-.35-3.07-.79-4.61-.83-12.63-.31-25.25-.54-37.88-.76-.62-.01-1.25.24-1.95.39-.26 5.63-.51 11.07-.77 16.75 20.31 1.98 40.31 3.93 60.88 5.93z"/><path d="m255.15 220.79c5.17 2.53 9.94 4.47 14.3 7.08 9.07 5.44 11.32 13.87 9.51 23.79-.06.33-.19.64-.25.97-1.94 10.62-3.93 12.1-16.04 15.51-4.08 1.15-8.28 1.83-12.41 2.78-2.1.49-3.14 1.76-3.09 4.07.11 4.46.03 8.93.03 13.79 5.28.54 10.79 1.11 16.69 1.72.71-4.2 1.37-8.13 2.04-12.07.51-2.98 1.64-5.29 5.14-5.66 2.84-.3 4.47.59 5.56 3.41 2.67 6.88 3.45 14.04 2.38 21.13-1.35 8.91-3.54 17.71-5.67 26.48-2.4 9.86-9.96 14.13-19.01 16.25-8.36 1.96-16.69.36-24.98-.98-.99-.16-1.96-.53-2.96-.59-8.31-.51-12.94-5.69-16.16-12.66-7.51-16.28-7.64-33.09-3.45-50.17.19-.78 1.14-1.62 1.94-1.94 1.53-.61 3.2-.87 5.03-1.33 2.38 4.74 5.54 9.02 5.1 14.69-.05.64 1.2 1.91 1.94 1.99 3.21.35 6.46.5 9.69.41.69-.02 1.79-1.24 1.94-2.05.64-3.51 1.02-7.07 1.44-10.61.26-2.22.16-4.51.68-6.66 2.32-9.47 7.77-13.02 19.68-14.37 1.55-.18 3.13-.03 4.69-.16 4.23-.36 6.15-1.81 6.9-5.1 1.06-4.66.03-7.65-3.34-9.85-6.39-4.18-13.44-5.22-20.89-4.57-7.36.65-14.65-.16-21.38-3.07-7.52-3.24-11.94-9.62-14.37-17.26-3.85-12.09-2.79-24.3-.36-36.49.2-.99.53-1.95.68-2.94 1.28-8.22 6.37-12.55 14.23-14.22 17.21-3.67 34.59-4.3 52.06-2.71 2.65.24 5.64 1.33 7.6 3.02 1.56 1.35 2.25 4.2 2.39 6.44.05.81-2.53 2.37-4.05 2.57-3.84.52-7.76.71-11.63.58-9.2-.3-9.52-.16-10.65 8.82-.41 3.31-.65 6.64-1.04 10.61 6.92.47 13.58.83 20.23 1.41 2.18.19 4.45.65 6.42 1.55 2.82 1.29 3.14 4 3.05 6.87-.09 2.82-2.32 3.31-4.1 3.6-4.27.69-8.61.97-12.94 1.26-3.12.21-6.27.01-9.37.34-.86.09-2.19 1.31-2.29 2.14-.48 4.24-.66 8.48-.91 12.18zm6.83 84.31c-14.09 0-27.55 0-41.17 0 0 2.49-.21 4.73.04 6.92.89 7.8 4.98 12.4 12.76 14.18 8.59 1.96 16.9 1.7 24.18-4.15.75-.6 1.71-1.39 1.86-2.22.89-4.8 1.55-9.64 2.33-14.73zm-42.85-113.89c7.78 0 15.11.06 22.44-.1.62-.01 1.67-1.42 1.73-2.24.25-3.56.5-7.17.13-10.7-.15-1.4-1.65-3.34-2.98-3.83-6.94-2.55-13.37-.33-19.54 2.9-.45.24-.8 1.05-.85 1.63-.37 4.23-.65 8.46-.93 12.34zm.05 15.92c.67 2.61 1.25 4.98 1.89 7.33 1.46 5.36 1.47 5.36 6.95 5.36h15.12c-.24-4.57-.45-8.56-.67-12.69-7.86 0-15.41 0-23.29 0z"/><path d="m163.81 218.22c6.08 1.36 9.39-1.06 11.84-6.07 4.21-8.61 4.58-17.2 1.02-25.95-3.21-7.89-6.78-15.69-6.4-24.45.2-4.5 1.04-8.97 1.6-13.5 6.49.44 10.19 3.48 11.35 8.78 2.97 13.52 5.73 27.09 8.23 40.7 1.17 6.39-.26 12.72-2.35 18.79-3.29 9.53-10.79 14.25-20.09 16.22-7.05 1.49-7.16 1.15-8.85 8.48-3.86 16.73-5.41 33.71-2.32 50.63 2 10.95 5.31 21.73 9 32.26 1.84 5.25 5.85 9.75 8.87 14.58.59.95 1.3 1.85 1.77 2.85 2.12 4.53.06 7.83-4.93 7.97-3.18.09-5.76-.87-7.95-3.43-11.23-13.16-17.32-28.61-20.29-45.39-3.06-17.29-4.12-34.72-1.33-52.13 2.39-14.9 5.71-29.65 8.05-44.56.8-5.08-.19-10.43-.32-15.66-.19-7.75-4.61-13.87-7.9-20.4-2.07-4.11-3.48-8.29-2.55-12.89.25-1.22 1.37-3.19 2.13-3.21 2.27-.06 5.7-.12 6.66 1.24 7.36 10.48 13.74 21.61 15.76 34.47.8 5.1.09 10.46-.11 15.69-.19 4.99-.59 9.98-.89 14.98z"/><path d="m170.99 268.63c.04-11.16 2.44-21.73 8.02-31.49 1.14-2 1.94-4.25 5.19-3.25 3.52 1.08 5.69 2.9 5.65 6.13-.04 3.12-.49 6.24-.91 9.34-1.66 12.23-2.96 24.52-1.03 36.78 1.02 6.47 3.29 12.73 4.9 19.11 1.06 4.22 1.84 8.5 2.92 12.71.93 3.64-1.39 5.3-4.03 6.27-2.68.99-5.28-.15-6.43-2.77-3.54-8.05-7.6-16-9.97-24.41-2.59-9.18-3.52-18.83-5.17-28.27.28-.04.57-.1.86-.15z"/><path d="m123.61 335.95c-3.31-3.27-5.03-7.05-5.39-11.24-1.29-15.26-2.84-30.52-3.39-45.81-.42-11.67 1.94-23.18 5.57-34.29.65-2 3.13-4.42 5.08-4.75 3.49-.59 6.87 2.4 7.26 5.61.28 2.28.08 4.7-.33 6.98-1.32 7.26-2.9 14.47-4.26 21.73-2 10.64-.23 21.2.85 31.76.82 8.02 1.66 16.03 2.62 24.03.22 1.84-.05 2.92-1.97 3.53-2.02.62-3.93 1.57-6.04 2.45z"/><path d="m118.94 160.5c5.04.45 8.71 2.41 9.88 7.12 5.05 20.25 7.28 40.47-1.4 60.44-2.15 4.95-4.69 6.38-9 4.4-1.07-.49-2.4-1.67-2.56-2.69-.53-3.45-1.08-7.04-.68-10.46.38-3.26 1.81-6.43 2.98-9.56 3.48-9.28 3.57-18.52.04-27.8-2.71-7.15-2.02-14.2.74-21.45z"/></g><path d="m385.2 377.6.6-.7c.6.4 1.3.9 1.9 1.5l-.6.7c-.8-.5-1.4-1-1.9-1.5zm.3 7.1c.6-1.4 1.1-2.9 1.5-4.5.3.1.6.3.9.4-.5 1.4-1 2.9-1.5 4.4zm.2-10.1.6-.6c.7.5 1.3 1.1 1.9 1.6l-.7.7c-.6-.6-1.2-1.2-1.8-1.7zm8.4-.8h.8v.9h1.8v.7h-1.8v1.8h-.8v-.3h-1.2v.9h3.3v2.6h-.8v-.4h-2.5c0 .3 0 .6-.1.8h3.4v.7h-3.5c0 .3-.1.6-.1.8h4v.7h-3.5c.7.9 1.9 1.3 3.6 1.5-.2.2-.4.5-.6.9-1.9-.3-3.2-1.1-3.8-2.3-.5 1.1-1.8 2-3.9 2.4-.2-.3-.4-.5-.6-.8 1.9-.4 3.1-.9 3.6-1.7h-3.2v-.7h3.5c.1-.2.1-.5.2-.8h-3.3v-.7h3.4c0-.2 0-.5 0-.8h-2.4v.3h-.8v-2.6h3.3v-.9h-1.2v.3h-.8v-1.8h-1.8v-.7h1.8v-.9h.8v.9h3.2zm-4.4 5.5h2.4c0-.3 0-.6 0-.9h-2.4zm1.2-3.1h3.2v-.8h-3.2zm4.4 2.2h-2.4v.9h2.5v-.9z" fill="#fcfbfa"/><path d="m389.2 385.8h.9v1.5h1.9v-1.5h.9v1.5h2.7v6h1.1v.9h-11.3v-.9h1.1v-6h2.7zm.2 8.7.5.8c-1.2.6-2.5 1.3-4 1.9-.2-.3-.3-.6-.6-.8 1.6-.6 3-1.3 4.1-1.9zm-2-4.3h1.9v-2.1h-1.9zm0 3.1h1.9v-2.2h-1.9zm2.7-3.1h1.9v-2.1h-1.9zm0 3.1h1.9v-2.2h-1.9zm2.4 1.3c1.4.6 2.7 1.2 4.1 1.8l-.5.9c-1.5-.7-2.8-1.4-4.1-1.9zm2.2-6.5h-1.9v2.1h1.9zm-1.9 5.2h1.9v-2.2h-1.9z" fill="#fcfbfa"/></svg>