<svg xmlns="http://www.w3.org/2000/svg" enable-background="new 0 0 400 400" viewBox="0 0 400 400"><path d="m279.15 232.23c-.7-7.87-1.38-15.61-2.09-23.63-8.23-1.42-16.31-3.1-24.48-4.1-4.31-.53-6.88-2.71-8.22-6.32-1.94-5.21-3.36-10.61-5.06-16.1 6.4-3.7 12.99-4.98 19.83-5.28 6.36-.28 12.74-.29 19.08-.75 2.49-.18 4.91-1.23 7.16-1.83.15-.67.27-.89.23-1.08-1.79-9.78-1.78-9.82-11.45-11.77-6.03-1.21-12.11-2.15-18.12-3.44-14.76-3.17-21.48-12.89-23.67-25.75-.11-.62 1.01-1.74 1.8-2.19 6.29-3.54 13.18-4.67 20.29-4.85 2.12-.05 4.25-.48 6.36-.4 8.47.32 12.32-5.34 15.1-11.94 1.36-3.23 1.77-6.9 2.42-10.4 1.34-7.29 5.54-12.58 11.52-16.59.72-.48 2.14-.59 2.91-.22 7.05 3.4 10.48 10.45 9.75 18.26-.44 4.71-.41 9.58.27 14.25.56 3.84 3.27 6.21 7.5 7 8.11 1.52 16.21 1.61 24.38 1 9.24-.69 13.15 3.35 12.82 12.67-.11 3.13-1.02 5.19-4.3 6.07-7.54 2-14.98 4.42-22.56 6.27-7.96 1.94-12.48 6.84-14.38 14.63-.62 2.56.09 3.84 2.52 4.8 9.18 3.62 18.74 3.89 28.41 3.65 2.66-.07 5.38.01 7.99.49 6.3 1.14 9.23 4.75 9.43 11.12.02.78.03 1.57 0 2.35-.21 5.75-.37 5.76-5.96 7.1-9.21 2.2-18.62 3.92-27.49 7.1-11.97 4.29-16.34 14.72-12.38 26.91.27.81 1.39 1.6 2.29 1.92 7.31 2.58 14.71 1.94 22.16.56 6.9-1.28 9.4 1.12 8.64 8.07-.85 7.76-7.41 13.77-15.92 14.93-4.96.68-9.89 1.68-14.78 2.76-.99.22-2.26 1.25-2.56 2.18-2.87 8.92-5.56 17.9-8.59 27.79 5.86.97 11.39 2.08 16.97 2.78 14.35 1.8 28.73 2.25 43.17.75 3.01-.31 6.19.46 9.22 1.07 1.78.35 2.67 1.57 2.2 3.76-.92 4.37-1.41 8.83-2.3 13.21-.23 1.11-1.11 2.44-2.08 2.98-14.19 7.82-28.33 15.77-42.77 23.1-3.83 1.94-8.64 2-13.02 2.76-6.83 1.18-13.65 2.74-20.53 3.19-6.77.45-13.61-.48-20.42-.45-10.15.03-20.32.14-30.45.69-3.73.2-5.7-.83-7.69-3.97-6.35-10-8.78-20.92-8.75-32.56.01-3.92.12-7.84-.12-11.75-.15-2.54.86-3.45 3.21-3.42 9.82.14 19.64.41 29.46.34 5.89-.04 11.79-.48 17.65-1.04 3.13-.3 4.82-2.13 4.73-5.66-.19-7.36-.08-14.73-.01-22.09.02-2.2-.86-3.41-3.05-3.42-8.12-.03-16.25-.04-24.37.01-2.79.02-5.59.44-8.36.29-4.12-.22-6.47-2.45-7.43-6.49-1.48-6.23-.06-10.18 5.9-12.07 7.62-2.42 15.54-3.94 23.4-5.49 4.67-.93 9.48-1.17 14.59-1.76z" fill="#010000"/><path d="m128.45 316.58c-3.03.37-5.66.85-8.31.9-.7.01-1.72-1.16-2.09-2.01-3.48-8.13-5.06-16.72-5.04-25.49.02-7.7.71-15.41 1.17-23.11.63-10.63-.09-21.02-4.96-30.76-.5-1-1.08-1.96-1.68-2.89-.35-.55-.81-1.02-1.34-1.66-10.85 11.24-24.65 15.5-39.36 18.76-10.05 2.23-19.28 7.48-27.81 13.64-4.36 3.15-9.3 5.5-14.58 8.55-.87-3.06-1.71-5.02-1.89-7.03-.09-1.01.79-2.4 1.64-3.17 14.19-12.85 28.39-25.68 42.69-38.4 11.46-10.19 23.02-20.25 34.61-30.29 4.9-4.25 6.4-9.39 5.17-15.67-.54-2.75-1.66-4.52-4.16-5.94-8.28-4.67-16.19-10.03-24.67-14.27-4.34-2.17-9.62-2.39-14.4-3.76-1.91-.55-4.03-1.45-5.32-2.86-6.41-6.97-8.03-15.36-5.96-24.39 1.94-8.49 4.12-16.93 6.65-25.26.72-2.36 2.88-4.41 4.73-6.26 1.39-1.39 5.08-.19 6.54 2.32 3.63 6.27 7.11 12.63 10.38 19.09 1.96 3.87 3.1 8.18 5.17 11.98 3.74 6.86 9.72 11.17 18.02 14.01.69-4.28 2.34-8.33 1.75-12.03-2.05-12.92-.23-25.37 2.76-37.86 2.61-10.9 5.44-21.65 11-31.53 1.57-2.8 3.3-3.04 5.93-2.33 10.1 2.74 15.12 9.97 17.78 19.54 3.05 10.97 3.42 22.02 1.82 33.24-.44 3.06-.18 6.24-.1 9.36.06 2.52.44 5.04 3.22 6.1 2.88 1.1 5.38.39 7.71-1.66 10.33-9.1 20.73-18.12 31.11-27.16.67-.59 1.37-1.14 2.25-1.87 6.63 6.31 11.95 13.57 16.8 21.21 3.94 6.2 7.09 12.69 8.05 20.06.12.89.19 1.78.27 2.67.55 6.27-1.28 10.37-7.53 13.79-7.75 4.25-14.96 5.13-23.52 3.93-11.31-1.58-22.25 1.44-32.21 7-6.14 3.43-8.89 11.56-7.08 18.51.11.43.22.92.5 1.22 4.65 5.11 8.62 11.23 14.16 15.06 9.84 6.78 18.37 14.37 24.5 24.7 5.34 9.01 12.39 16.66 19.96 23.85 3.69 3.5 6.15 7.65 5.83 13.03-.11 1.97-1.02 2.69-2.87 3.43-6.38 2.58-11.21 1.06-16.53-3.38-13.13-10.97-26.88-21.2-40.39-31.72-.87-.68-1.77-1.33-2.84-2.13-3.39 4.1-5.29 8.84-5.77 13.77-1.02 10.44-1.42 20.94-1.98 31.42-.37 7.04-.5 14.09-.91 21.13-.09 1.6-.77 3.22-1.45 4.7-.75 1.61-1.84 3.06-2.75 4.61-2.37 4.07-5.83 7.74-4.67 13.31z" fill="#010000"/><g fill="#fbfcfa"><path d="m361.2 9.6.8-1c.9.7 1.9 1.4 2.9 2.3l-.9 1.1c-1-1-2-1.8-2.8-2.4zm.5 10.6c.9-2.1 1.6-4.3 2.3-6.7.4.2.8.4 1.3.6-.7 2.1-1.5 4.3-2.2 6.6zm.4-15.2.9-.9c1 .8 2 1.6 2.8 2.4l-1 1c-.9-.9-1.8-1.7-2.7-2.5zm12.5-1.2h1.2v1.4h2.7v1.1h-2.7v2.7h-1.2v-.6h-1.8v1.3h4.9v3.8h-1.2v-.5h-3.7c0 .4-.1.9-.1 1.2h5.1v1h-5.2c0 .5-.1.9-.2 1.2h6v1h-5.2c1.1 1.3 2.9 2 5.5 2.2-.4.4-.7.8-.9 1.3-2.9-.5-4.8-1.6-5.7-3.5h-.1c-.8 1.7-2.7 2.9-5.9 3.6-.2-.4-.6-.8-.9-1.1 2.8-.6 4.6-1.4 5.4-2.5h-4.8v-1h5.3c.1-.3.2-.7.2-1.2h-4.9v-1h5c0-.4 0-.8.1-1.2h-3.5v.5h-1.2v-3.8h4.9v-1.3h-1.8v.5h-1.2v-2.7h-2.7v-1h2.6v-1.4h1.2v1.4h4.7v-1.4zm-6.6 8.3h3.6c0-.4 0-.9 0-1.4h-3.6zm1.9-4.6h4.7v-1.3h-4.7zm6.6 3.2h-3.7v1.4h3.7z"/><path d="m385.3 3.8h1.3v2.2h2.8v-2.2h1.3v2.2h4.1v9.1h1.7v1.3h-16.9v-1.3h1.7v-9.1h4.1v-2.2zm.4 13.1.7 1.2c-1.8.9-3.8 1.9-6 2.9-.2-.4-.5-.8-.8-1.3 2.3-1 4.3-1.9 6.1-2.8zm-3.1-6.4h2.8v-3.2h-2.8zm0 4.6h2.8v-3.3h-2.8zm4-4.6h2.8v-3.2h-2.8zm0 4.6h2.8v-3.3h-2.8zm3.7 1.9c2.1.9 4.1 1.8 6.1 2.7l-.7 1.3c-2.2-1.1-4.2-2-6.1-2.9zm3.2-9.7h-2.8v3.2h2.8zm-2.8 7.8h2.8v-3.3h-2.8z"/></g></svg>