<svg xmlns="http://www.w3.org/2000/svg" width="1200" height="900" viewBox="0 0 1200 900" role="img" aria-labelledby="title desc"><title id="title">权字的图中嵌字意象</title><desc id="desc">木与又按组合结构形成权</desc><defs><linearGradient id="bg" x1="0" y1="0" x2="1" y2="1"><stop stop-color="#F0FBF4"/><stop offset="1" stop-color="#EAF1FF"/></linearGradient><filter id="shadow"><feDropShadow dx="0" dy="20" stdDeviation="18" flood-color="#184F57" flood-opacity=".18"/></filter><mask id="glyph"><rect width="1200" height="900" fill="black"/><text x="600" y="650" text-anchor="middle" fill="white" stroke="white" stroke-width="8" font-family="Songti SC, STSong, serif" font-size="570" font-weight="900">权</text></mask><linearGradient id="glyphPaint" x1="0" y1="0" x2="1" y2="1"><stop stop-color="#F08958"/><stop offset=".48" stop-color="#2D9A78"/><stop offset="1" stop-color="#184F57"/></linearGradient></defs><rect width="1200" height="900" rx="60" fill="url(#bg)"/><circle cx="1050" cy="115" r="210" fill="#F08958" opacity=".09"/><circle cx="120" cy="790" r="270" fill="#2D9A78" opacity=".08"/><g opacity=".32"><g transform="translate(220 215)" opacity=".92"><circle cx="0" cy="0" r="92" fill="#F08958" opacity=".2"/><path d="M-105 35 Q0 -120 105 35 Q58 128 0 108 Q-58 128 -105 35Z" fill="#F08958" opacity=".25"/><text x="0" y="30" text-anchor="middle" fill="#F08958" font-family="Songti SC, STSong, serif" font-size="116" font-weight="900">木</text></g><g transform="translate(490 260)" opacity=".82"><circle cx="0" cy="0" r="92" fill="#2D9A78" opacity=".2"/><path d="M-105 35 Q0 -120 105 35 Q58 128 0 108 Q-58 128 -105 35Z" fill="#2D9A78" opacity=".25"/><text x="0" y="30" text-anchor="middle" fill="#2D9A78" font-family="Songti SC, STSong, serif" font-size="116" font-weight="900">又</text></g></g><g mask="url(#glyph)" filter="url(#shadow)"><rect x="125" y="105" width="950" height="610" rx="120" fill="url(#glyphPaint)"/><image href="../lessons/g5-18.jpg" x="0" y="0" width="1200" height="900" preserveAspectRatio="xMidYMid slice" opacity=".38"/></g><text x="70" y="82" fill="#184F57" font-family="PingFang SC, sans-serif" font-size="27" font-weight="800">第 18 课 · 慈母情深</text><text x="1130" y="82" text-anchor="end" fill="#184F57" opacity=".66" font-family="PingFang SC, sans-serif" font-size="24">权利</text><g transform="translate(330 760)"><rect width="160" height="58" rx="29" fill="#F08958" opacity=".96"/><text x="80" y="39" text-anchor="middle" fill="white" font-family="PingFang SC, sans-serif" font-size="28" font-weight="800">木 · 表意</text></g><g transform="translate(520 760)"><rect width="160" height="58" rx="29" fill="#2D9A78" opacity=".96"/><text x="80" y="39" text-anchor="middle" fill="white" font-family="PingFang SC, sans-serif" font-size="28" font-weight="800">又 · 补形</text></g><text x="70" y="852" fill="#184F57" opacity=".68" font-family="PingFang SC, sans-serif" font-size="22">物象长成笔画 · 有横枝、直干和斜根的大树</text></svg>
