<svg xmlns="http://www.w3.org/2000/svg" enable-background="new 0 0 400 400" viewBox="0 0 400 400"><g fill="#fbfafc"><path d="m12.4 4.8-6.1 9h6v1.2h-8v-.5l6.1-8.9h-5.7v-1.2h7.6v.4z"/><path d="m14 15v-10.6h3c1.6 0 2.9.5 4 1.4s1.6 2.2 1.6 3.8-.5 3-1.6 3.9-2.4 1.5-4 1.5zm1.4-9.4v8.2h1.6c1.3 0 2.4-.4 3.1-1.1s1.1-1.8 1.1-3.1-.4-2.3-1.2-3-1.8-1-3.1-1z"/><path d="m26.1 4.4v10.6h-1.4v-10.6z"/><path d="m36.1 14.6c-.8.4-1.8.6-2.9.6-1.5 0-2.7-.5-3.6-1.4s-1.4-2.2-1.4-3.8c0-1.7.5-3.1 1.5-4.1s2.3-1.6 3.9-1.6c1 0 1.8.1 2.5.4v1.4c-.8-.4-1.6-.6-2.5-.6-1.2 0-2.1.4-2.9 1.2s-1.1 1.8-1.1 3.2c0 1.3.3 2.3 1 3s1.6 1.1 2.7 1.1c1 0 2-.2 2.7-.7v1.3z"/><path d="m37.6 14.3c0-.2.1-.5.3-.6s.4-.3.6-.3c.3 0 .5.1.6.3s.3.4.3.6-.1.4-.3.6-.4.3-.6.3c-.3 0-.5-.1-.6-.3s-.3-.4-.3-.6z"/><path d="m50.2 15h-1.6l-5.3-8.2c-.2-.2-.3-.5-.4-.7 0 .2.1.7.1 1.5v7.4h-1.4v-10.6h1.7l5.2 8.1c.2.4.4.6.4.7 0-.3-.1-.8-.1-1.5v-7.3h1.4z"/><path d="m58.6 15h-5.7v-10.6h5.5v1.2h-4.1v3.4h3.8v1.2h-3.8v3.6h4.3z"/><path d="m67.1 5.6h-3.1v9.4h-1.4v-9.4h-3v-1.2h7.5z"/></g><path d="m285.57 139.36c-3.8 1.07-5.93-.42-8.34-2.72-10.03-9.56-20.12-19.07-30.65-28.06-5.08-4.34-11.48-6.37-18.45-5.73-3.09.28-5.5 1.17-6.82 4.36-1.36 3.29-3.24 6.37-4.74 9.61-2.22 4.79-1.89 9.45.68 14.12 3.71 6.76 7.33 13.57 10.72 20.49 4.04 8.24 5.95 17.08 6.37 26.21.71 15.55-.39 30.92-6.71 45.37-1.75 3.99-4.74 7.53-7.6 10.9-.87 1.03-3.24 1.09-4.88.98-.49-.03-1.33-2.22-1.17-3.29.65-4.28 1.13-8.68 2.57-12.71 5.83-16.44 7.53-33.24 3.49-50.16-1.95-8.17-5.87-15.88-9-23.76-.34-.86-1.29-1.52-2.03-2.19-3.71-3.4-7.26-7.02-11.22-10.1-3.66-2.84-4.18-6.4-2.76-10.11 1.83-4.77 3.69-9.8 6.79-13.75 7.59-9.68 12.63-20.56 16.55-32 3.25-9.49 6.26-19.12 8.47-28.9 1.1-4.88.19-10.21.19-15.36 6.96.38 17.33 8.27 19.12 14.21 1.04 3.45.87 6.34-1.81 9.51-5.48 6.47-7.81 14.45-8.72 22.84-.22 2.04.78 3.15 2.34 4.36 9.28 7.15 18.9 13.97 27.54 21.84 10.04 9.11 15.93 21.08 20.07 34.04z" fill="#000001"/><path d="m204.71 235.51c7.96 2.44 14.98 4.6 22.02 6.75 4.93 1.5 9.86 2.95 15.13 1.83 6.12-1.31 8.58-3.9 8.24-9.97-.31-5.54-1.2-11.05-1.99-16.56-.16-1.13-.86-2.31-1.61-3.22-2.6-3.16-3.75-6.76-3.82-10.71 2.15-1.75 3.81-1.04 5.68.43 5.1 4.01 10.56 7.59 15.41 11.87 2.47 2.18 4.45 5.28 5.7 8.35 1.12 2.77 2.5 4.6 5.13 5.4 10.72-10.67 12-23.99 10.32-38.29 7.82 1.02 13.86 4.05 18.43 9.68 2.34 2.88 2.63 6.32 1.55 9.86-2.39 7.87-5.59 15.12-11.81 20.99-5.91 5.57-10.62 12.41-18.04 16.36-.75.4-1.43 1.81-1.37 2.7 1.53 23.8-5.5 46.51-8.85 69.68-.78 5.41-.99 10.91-1.88 16.3-.95 5.77-3.14 10.95-9.4 13.76-.07-1.19-.18-2.13-.16-3.07.53-28.41 1.09-56.83 1.6-85.24.09-5.18-2.32-7.23-7.51-6.04-4.67 1.07-9.18 2.85-13.86 3.91-3.65.82-7.54 1.77-11.17 1.34-8.86-1.06-12.85-7.83-15.58-15.32-1.15-3.15-1.37-6.65-2.16-10.79z" fill="#000001"/><path d="m177.78 25.31c4.92 2.1 9.21 3.66 13.24 5.73 4.45 2.28 5.73 5.17 4.36 9.97-1.4 4.92-2.86 9.93-5.15 14.48-6.57 13.06-13.13 26.17-20.59 38.73-3.94 6.63-9.65 12.23-14.74 18.14-3.27 3.79-5.88 7.83-7.07 12.76-.58 2.39-.24 4.12 1.74 5.89 7.07 6.35 13.95 12.92 20.91 19.4 9.35 8.71 13.94 19.61 12.75 32.19-1.12 11.86-3.57 23.6-5.45 35.39-.1.65-.31 1.31-.58 1.91-2.23 4.98-4.59 9.9-6.71 14.92-1.77 4.2-4.9 6.14-9.85 6.5.94-5.45-.72-11.03 2.97-15.82.51-.66.68-1.65.82-2.51 1.64-10.24 3.25-20.49 4.86-30.73 1.74-11.07-.35-21.57-4.96-31.63-.46-1-1.61-1.77-2.6-2.42-8.2-5.42-16.52-10.68-24.62-16.24-2.35-1.61-4.3-3.91-6.12-6.15-3.22-3.96-4.22-8.18-2.38-13.39 1.84-5.23 4.43-9.59 7.91-13.97 10.14-12.76 19.49-26.15 29.15-39.3 2.67-3.64 3.93-7.79 3.81-12.23-.12-4.68 1.46-8.71 3.77-12.63 1.64-2.79 3.61-5.58 4.36-8.63.76-3.04.17-6.42.17-10.36z" fill="#000001"/><path d="m89.29 260.59c16.48 11.8 33.78 11.74 51.57 7.89 4.64-1.01 6.62-3.11 5.75-7.75-1.1-5.82-3.16-11.58-5.66-16.96-2.06-4.43-2.62-4.17-.95-9.26.79.31 1.61.55 2.34.93 6.52 3.46 12.94 7.1 19.55 10.35 3.63 1.78 4.87 4.63 5.2 8.27.17 1.89.07 3.85.61 5.63.86 2.89 3.35 3.34 5.15.94 3.34-4.47 6.67-8.97 9.67-13.67 4.17-6.52 12.55-6.51 16.16.4 1.36 2.6 2.47 5.65 2.53 8.51.04 2.3-1.07 5.34-2.75 6.82-5.93 5.23-11.95 10.51-19.99 12.46-1.84.45-3.61 1.18-5.41 1.79-5.97 2.03-9.66 5.65-10.58 12.38-2.83 20.51-7.76 40.57-13.79 60.38-1.56 5.1-2.06 10.52-3.2 15.76-.87 4.01-3.18 7.03-7.24 9.34.68-6.78 1.29-13.15 1.97-19.5 1.71-16.13 3.33-32.26 5.23-48.36.57-4.85 1.96-9.6 2.96-14.39.07-.33.11-.67.11-1 .01-9.18-1.95-11.41-10.78-10.04-7.57 1.18-14.97 3.54-22.37 5.64-8.86 2.51-12.8.29-17.47-6.97-2.77-4.31-5.31-8.8-7.63-13.38-.8-1.54-.61-3.59-.98-6.21z" fill="#000001"/></svg>